
<svg width="20" height="20" viewBox="0 0 20 20" fill="none" xmlns="http://www.w3.org/2000/svg">
<mask id="mask0_44_58" style="mask-type:alpha" maskUnits="userSpaceOnUse" x="0" y="0" width="20" height="20">
<rect width="20" height="20" fill="#D9D9D9"/>
</mask>
<g mask="url(#mask0_44_58)">
<path d="M10 10.0001C10.4584 10.0001 10.8507 9.83689 11.1771 9.5105C11.5035 9.18411 11.6667 8.79175 11.6667 8.33341C11.6667 7.87508 11.5035 7.48272 11.1771 7.15633C10.8507 6.82994 10.4584 6.66675 10 6.66675C9.54171 6.66675 9.14935 6.82994 8.82296 7.15633C8.49657 7.48272 8.33337 7.87508 8.33337 8.33341C8.33337 8.79175 8.49657 9.18411 8.82296 9.5105C9.14935 9.83689 9.54171 10.0001 10 10.0001ZM10 16.1251C11.6945 14.5695 12.9514 13.1563 13.7709 11.8855C14.5903 10.6147 15 9.48619 15 8.50008C15 6.98619 14.5174 5.74661 13.5521 4.78133C12.5868 3.81605 11.4028 3.33341 10 3.33341C8.59726 3.33341 7.41323 3.81605 6.44796 4.78133C5.48268 5.74661 5.00004 6.98619 5.00004 8.50008C5.00004 9.48619 5.40976 10.6147 6.22921 11.8855C7.04865 13.1563 8.3056 14.5695 10 16.1251ZM10 18.3334C7.76393 16.4306 6.09379 14.6633 4.98962 13.0313C3.88546 11.3994 3.33337 9.88897 3.33337 8.50008C3.33337 6.41675 4.00351 4.75703 5.34379 3.52091C6.68407 2.2848 8.23615 1.66675 10 1.66675C11.7639 1.66675 13.316 2.2848 14.6563 3.52091C15.9966 4.75703 16.6667 6.41675 16.6667 8.50008C16.6667 9.88897 16.1146 11.3994 15.0105 13.0313C13.9063 14.6633 12.2362 16.4306 10 18.3334Z" fill="#999999"/>
</g>
</svg>
