
<svg width="25" height="25" viewBox="0 0 25 25" fill="none" xmlns="http://www.w3.org/2000/svg">
<path d="M2.79785 5.82324C2.82715 5.53516 2.71484 5.24707 2.5 5.05176L0.297852 2.39551V2H7.14355L12.4365 13.6064L17.0898 2H23.6182V2.39551L21.7334 4.20215C21.5723 4.32422 21.4893 4.5293 21.5234 4.72949V18.0107C21.4893 18.2109 21.5723 18.416 21.7334 18.5381L23.5742 20.3447V20.7402H14.3115V20.3447L16.2207 18.4941C16.4062 18.3086 16.4062 18.25 16.4062 17.9668V7.23438L11.0986 20.7061H10.3809L4.20898 7.23438V16.2627C4.15527 16.6436 4.28223 17.0244 4.55078 17.2979L7.03125 20.3057V20.7012H0V20.3105L2.48047 17.2979C2.74414 17.0244 2.86621 16.6387 2.79785 16.2627V5.82324Z" fill="white" fill-opacity="0.7"/>
</svg>
