
<svg width="67" height="67" viewBox="0 0 67 67" fill="none" xmlns="http://www.w3.org/2000/svg">
<mask id="mask0_43_8" style="mask-type:alpha" maskUnits="userSpaceOnUse" x="0" y="0" width="67" height="67">
<rect width="67" height="67" fill="#77B7FF"/>
</mask>
<g mask="url(#mask0_43_8)">
<path d="M11.1667 55.8334C9.63129 55.8334 8.31688 55.2867 7.22348 54.1933C6.13008 53.0998 5.58337 51.7854 5.58337 50.25V16.75C5.58337 15.2146 6.13008 13.9002 7.22348 12.8068C8.31688 11.7134 9.63129 11.1667 11.1667 11.1667H55.8334C57.3688 11.1667 58.6832 11.7134 59.7766 12.8068C60.87 13.9002 61.4167 15.2146 61.4167 16.75V50.25C61.4167 51.7854 60.87 53.0998 59.7766 54.1933C58.6832 55.2867 57.3688 55.8334 55.8334 55.8334H11.1667ZM11.1667 50.25H40.4792V40.4792H11.1667V50.25ZM46.0625 50.25H55.8334V25.125H46.0625V50.25ZM11.1667 34.8959H40.4792V25.125H11.1667V34.8959Z" fill="#77B7FF"/>
</g>
</svg>
