<?xml version="1.0" encoding="utf-8"?>
<!-- Generator: Adobe Illustrator 26.0.0, SVG Export Plug-In . SVG Version: 6.00 Build 0)  -->
<svg version="1.1" id="圖層_1" xmlns="http://www.w3.org/2000/svg" xmlns:xlink="http://www.w3.org/1999/xlink" x="0px" y="0px"
	 viewBox="0 0 32 32" style="enable-background:new 0 0 32 32;" xml:space="preserve">
<g>
	<path d="M4.1,3.1H19c2.5,0,4.4,0.6,5.7,1.8s2,2.8,2,4.6c0,1.5-0.5,2.8-1.4,3.9c-0.6,0.7-1.6,1.3-2.8,1.7c1.9,0.4,3.2,1.2,4.1,2.3
		s1.3,2.4,1.3,4.1c0,1.3-0.3,2.5-0.9,3.6s-1.5,1.9-2.5,2.5c-0.7,0.4-1.7,0.7-3,0.8c-1.8,0.2-3,0.4-3.6,0.4H4.1V3.1z M12.1,13.2h3.5
		c1.2,0,2.1-0.2,2.6-0.6s0.7-1,0.7-1.9c0-0.8-0.2-1.3-0.7-1.8s-1.3-0.6-2.5-0.6h-3.5V13.2z M12.1,23.3h4.1c1.4,0,2.3-0.2,2.9-0.7
		s0.8-1.1,0.8-2c0-0.8-0.3-1.4-0.8-1.8s-1.5-0.7-2.9-0.7h-4V23.3z"></path>
	</g>
</svg>
